<svg xmlns="http://www.w3.org/2000/svg" viewBox="0 0 800 1000">
  <g fill="none" stroke="#e5e6df" stroke-linecap="square">
    <g opacity=".2" stroke-width="1.4">
      <path d="M96 400H704M96 480H704M96 560H704M96 640H704M96 720H704"/>
      <path d="M184 372V748M320 372V748M456 372V748M592 372V748"/>
    </g>
    <g stroke-width="3.5">
      <rect x="96" y="448" width="128" height="94"/>
      <rect x="276" y="448" width="128" height="94"/>
      <rect x="456" y="448" width="128" height="94"/>
      <rect x="636" y="448" width="68" height="94"/>
    </g>
    <g stroke="#d6b86b" stroke-width="5">
      <path d="M224 495H258M404 495H438M584 495H618"/>
      <path d="M96 568H224"/>
    </g>
    <path d="M96 800H704" opacity=".3" stroke-width="1.4"/>
  </g>
  <g fill="#e5e6df" font-family="ui-monospace, SFMono-Regular, Menlo, monospace" font-size="17" letter-spacing="2.4">
    <text x="96" y="348" opacity=".6">INPUT / STATE PATH</text>
    <text x="704" y="348" text-anchor="end" opacity=".6">POINTER / KEYBOARD</text>
    <text x="160" y="503" text-anchor="middle">FOCUS</text>
    <text x="340" y="503" text-anchor="middle">HOLD</text>
    <text x="520" y="503" text-anchor="middle">DRAG</text>
    <text x="670" y="503" text-anchor="middle">OPEN</text>
    <text x="96" y="598" fill="#d6b86b">ACTIVE TARGET</text>
    <text x="96" y="782" opacity=".6">ONE LIVE HITBOX</text>
    <text x="704" y="782" text-anchor="end" opacity=".6">DOM + WEBGL</text>
  </g>
</svg>
